<?xml version="1.0" standalone="no"?>
<!DOCTYPE svg PUBLIC "-//W3C//DTD SVG 20010904//EN"
 "http://www.w3.org/TR/2001/REC-SVG-20010904/DTD/svg10.dtd">
<svg version="1.0" xmlns="http://www.w3.org/2000/svg"
 width="1080.000000pt" height="1080.000000pt" viewBox="0 0 1080.000000 1080.000000"
 preserveAspectRatio="xMidYMid meet">
<metadata>
Created by potrace 1.14, written by Peter Selinger 2001-2017
</metadata>
<g transform="translate(0.000000,1080.000000) scale(0.100000,-0.100000)"
fill="#000000" stroke="none">
<path d="M5120 8670 c-844 -73 -1614 -424 -2191 -1000 -155 -154 -242 -257
-359 -420 -311 -434 -499 -912 -576 -1460 -25 -176 -25 -604 0 -780 77 -548
265 -1026 576 -1460 118 -164 205 -266 359 -420 1352 -1345 3599 -1345 4952 0
461 458 762 1009 893 1635 49 236 60 351 60 635 0 284 -11 399 -60 635 -93
442 -271 847 -534 1215 -117 163 -204 266 -359 420 -556 555 -1276 895 -2096
991 -124 14 -537 20 -665 9z"/>
</g>
</svg>
